<svg xmlns="http://www.w3.org/2000/svg" viewBox="0 0 550 550" fill="none">
  <rect width="550" height="550" rx="124" fill="#222a33"/>
  <path fill="#fff7ed" fill-rule="evenodd" d="M 269 17 L 270 17 L 270 19 L 271 19 L 271 23 L 272 23 L 272 27 L 273 27 L 273 29 L 274 29 L 274 33 L 275 33 L 275 35 L 276 35 L 276 39 L 277 39 L 277 42 L 278 42 L 278 45 L 279 45 L 279 48 L 280 48 L 280 52 L 281 52 L 281 56 L 282 56 L 282 61 L 283 61 L 283 69 L 284 69 L 284 80 L 285 80 L 285 91 L 284 91 L 284 107 L 283 107 L 283 117 L 282 117 L 282 123 L 281 123 L 281 127 L 280 127 L 280 133 L 279 133 L 279 136 L 278 136 L 278 139 L 277 139 L 277 143 L 276 143 L 276 146 L 275 146 L 275 148 L 274 148 L 274 151 L 273 151 L 273 153 L 272 153 L 272 155 L 271 155 L 271 158 L 270 158 L 270 160 L 269 160 L 269 162 L 268 162 L 268 163 L 267 163 L 267 165 L 266 165 L 266 167 L 265 167 L 265 169 L 264 169 L 264 170 L 263 170 L 263 172 L 262 172 L 262 173 L 261 173 L 261 175 L 260 175 L 260 176 L 259 176 L 259 178 L 258 178 L 258 179 L 257 179 L 257 181 L 256 181 L 256 182 L 255 182 L 255 183 L 254 183 L 254 185 L 253 185 L 253 186 L 252 186 L 252 187 L 251 187 L 251 189 L 250 189 L 250 190 L 249 190 L 249 191 L 248 191 L 248 193 L 247 193 L 247 194 L 246 194 L 246 196 L 245 196 L 245 197 L 244 197 L 244 198 L 243 198 L 243 200 L 242 200 L 242 201 L 241 201 L 241 203 L 240 203 L 240 204 L 239 204 L 239 206 L 238 206 L 238 207 L 237 207 L 237 209 L 236 209 L 236 210 L 235 210 L 235 212 L 234 212 L 234 214 L 233 214 L 233 215 L 232 215 L 232 217 L 231 217 L 231 219 L 230 219 L 230 221 L 229 221 L 229 223 L 228 223 L 228 226 L 227 226 L 227 228 L 226 228 L 226 230 L 225 230 L 225 234 L 224 234 L 224 236 L 223 236 L 223 239 L 222 239 L 222 242 L 221 242 L 221 246 L 220 246 L 220 250 L 219 250 L 219 256 L 218 256 L 218 266 L 217 266 L 217 272 L 218 272 L 218 280 L 219 280 L 219 285 L 220 285 L 220 289 L 221 289 L 221 291 L 222 291 L 222 293 L 223 293 L 223 295 L 224 295 L 224 296 L 225 296 L 225 298 L 226 298 L 226 299 L 227 299 L 227 301 L 228 301 L 228 302 L 229 302 L 229 303 L 230 303 L 230 304 L 231 304 L 231 305 L 232 305 L 232 306 L 233 306 L 233 307 L 234 307 L 234 308 L 235 308 L 235 309 L 237 309 L 237 310 L 238 310 L 238 311 L 240 311 L 240 312 L 241 312 L 241 313 L 243 313 L 243 314 L 245 314 L 245 315 L 247 315 L 247 316 L 249 316 L 249 317 L 252 317 L 252 318 L 255 318 L 255 319 L 258 319 L 258 320 L 266 320 L 266 321 L 277 321 L 277 320 L 285 320 L 285 319 L 288 319 L 288 318 L 291 318 L 291 317 L 294 317 L 294 316 L 296 316 L 296 315 L 298 315 L 298 314 L 300 314 L 300 313 L 302 313 L 302 312 L 303 312 L 303 311 L 305 311 L 305 310 L 306 310 L 306 309 L 308 309 L 308 308 L 309 308 L 309 307 L 310 307 L 310 306 L 311 306 L 311 305 L 312 305 L 312 304 L 313 304 L 313 303 L 314 303 L 314 301 L 315 301 L 315 300 L 316 300 L 316 299 L 317 299 L 317 297 L 318 297 L 318 296 L 319 296 L 319 294 L 320 294 L 320 292 L 321 292 L 321 290 L 322 290 L 322 287 L 323 287 L 323 285 L 324 285 L 324 281 L 325 281 L 325 277 L 326 277 L 326 269 L 327 269 L 327 265 L 326 265 L 326 256 L 325 256 L 325 252 L 324 252 L 324 249 L 323 249 L 323 246 L 322 246 L 322 244 L 321 244 L 321 242 L 320 242 L 320 240 L 319 240 L 319 239 L 318 239 L 318 237 L 317 237 L 317 236 L 316 236 L 316 235 L 315 235 L 315 234 L 314 234 L 314 233 L 313 233 L 313 232 L 312 232 L 312 231 L 311 231 L 311 230 L 309 230 L 309 229 L 307 229 L 307 228 L 306 228 L 306 227 L 303 227 L 303 226 L 300 226 L 300 225 L 286 225 L 286 226 L 283 226 L 283 227 L 280 227 L 280 228 L 278 228 L 278 229 L 277 229 L 277 230 L 276 230 L 276 231 L 274 231 L 274 232 L 273 232 L 273 233 L 272 233 L 272 234 L 271 234 L 271 236 L 270 236 L 270 237 L 269 237 L 269 238 L 268 238 L 268 240 L 267 240 L 267 242 L 266 242 L 266 244 L 265 244 L 265 248 L 264 248 L 264 260 L 265 260 L 265 263 L 266 263 L 266 265 L 267 265 L 267 267 L 268 267 L 268 269 L 269 269 L 269 270 L 270 270 L 270 271 L 271 271 L 271 272 L 272 272 L 272 273 L 273 273 L 273 274 L 275 274 L 275 275 L 276 275 L 276 276 L 277 276 L 277 277 L 279 277 L 279 278 L 281 278 L 281 279 L 283 279 L 283 280 L 286 280 L 286 281 L 300 281 L 300 280 L 304 280 L 304 279 L 306 279 L 306 280 L 305 280 L 305 281 L 303 281 L 303 282 L 301 282 L 301 283 L 299 283 L 299 284 L 296 284 L 296 285 L 294 285 L 294 286 L 290 286 L 290 287 L 274 287 L 274 286 L 267 286 L 267 285 L 264 285 L 264 284 L 261 284 L 261 283 L 259 283 L 259 282 L 258 282 L 258 281 L 256 281 L 256 280 L 255 280 L 255 279 L 254 279 L 254 278 L 253 278 L 253 277 L 252 277 L 252 276 L 251 276 L 251 274 L 250 274 L 250 273 L 249 273 L 249 271 L 248 271 L 248 270 L 247 270 L 247 267 L 246 267 L 246 265 L 245 265 L 245 262 L 244 262 L 244 258 L 243 258 L 243 237 L 244 237 L 244 233 L 245 233 L 245 230 L 246 230 L 246 227 L 247 227 L 247 224 L 248 224 L 248 222 L 249 222 L 249 221 L 250 221 L 250 219 L 251 219 L 251 217 L 252 217 L 252 216 L 253 216 L 253 215 L 254 215 L 254 214 L 255 214 L 255 213 L 256 213 L 256 212 L 257 212 L 257 211 L 258 211 L 258 210 L 259 210 L 259 209 L 260 209 L 260 208 L 261 208 L 261 207 L 263 207 L 263 206 L 264 206 L 264 205 L 266 205 L 266 204 L 267 204 L 267 203 L 269 203 L 269 202 L 272 202 L 272 201 L 274 201 L 274 200 L 277 200 L 277 199 L 281 199 L 281 198 L 289 198 L 289 197 L 294 197 L 294 198 L 302 198 L 302 199 L 306 199 L 306 200 L 309 200 L 309 201 L 311 201 L 311 202 L 314 202 L 314 203 L 316 203 L 316 204 L 318 204 L 318 205 L 320 205 L 320 206 L 322 206 L 322 207 L 323 207 L 323 208 L 324 208 L 324 209 L 326 209 L 326 210 L 327 210 L 327 211 L 328 211 L 328 212 L 329 212 L 329 213 L 330 213 L 330 214 L 331 214 L 331 215 L 332 215 L 332 216 L 333 216 L 333 217 L 334 217 L 334 218 L 335 218 L 335 219 L 336 219 L 336 220 L 337 220 L 337 222 L 338 222 L 338 224 L 339 224 L 339 225 L 340 225 L 340 227 L 341 227 L 341 229 L 342 229 L 342 231 L 343 231 L 343 233 L 344 233 L 344 236 L 345 236 L 345 238 L 346 238 L 346 241 L 347 241 L 347 245 L 348 245 L 348 249 L 349 249 L 349 254 L 350 254 L 350 262 L 351 262 L 351 278 L 350 278 L 350 286 L 349 286 L 349 291 L 348 291 L 348 296 L 347 296 L 347 299 L 346 299 L 346 301 L 345 301 L 345 304 L 344 304 L 344 307 L 343 307 L 343 308 L 342 308 L 342 310 L 341 310 L 341 312 L 340 312 L 340 314 L 339 314 L 339 316 L 338 316 L 338 317 L 337 317 L 337 318 L 336 318 L 336 320 L 335 320 L 335 321 L 334 321 L 334 323 L 333 323 L 333 324 L 332 324 L 332 325 L 331 325 L 331 326 L 330 326 L 330 327 L 329 327 L 329 328 L 328 328 L 328 329 L 327 329 L 327 330 L 326 330 L 326 331 L 325 331 L 325 332 L 324 332 L 324 333 L 323 333 L 323 334 L 321 334 L 321 335 L 320 335 L 320 336 L 319 336 L 319 337 L 317 337 L 317 338 L 316 338 L 316 339 L 314 339 L 314 340 L 313 340 L 313 341 L 310 341 L 310 342 L 308 342 L 308 343 L 306 343 L 306 344 L 304 344 L 304 345 L 301 345 L 301 346 L 298 346 L 298 347 L 295 347 L 295 348 L 290 348 L 290 349 L 282 349 L 282 350 L 268 350 L 268 349 L 260 349 L 260 348 L 254 348 L 254 347 L 249 347 L 249 346 L 246 346 L 246 345 L 243 345 L 243 344 L 240 344 L 240 343 L 238 343 L 238 342 L 236 342 L 236 341 L 233 341 L 233 340 L 232 340 L 232 339 L 230 339 L 230 338 L 228 338 L 228 337 L 227 337 L 227 336 L 225 336 L 225 335 L 223 335 L 223 334 L 222 334 L 222 333 L 221 333 L 221 332 L 219 332 L 219 331 L 218 331 L 218 330 L 217 330 L 217 329 L 216 329 L 216 328 L 215 328 L 215 327 L 214 327 L 214 326 L 213 326 L 213 325 L 212 325 L 212 324 L 211 324 L 211 322 L 210 322 L 210 321 L 209 321 L 209 320 L 208 320 L 208 319 L 207 319 L 207 317 L 206 317 L 206 316 L 205 316 L 205 315 L 204 315 L 204 313 L 203 313 L 203 311 L 202 311 L 202 310 L 201 310 L 201 308 L 200 308 L 200 306 L 199 306 L 199 304 L 198 304 L 198 302 L 197 302 L 197 300 L 196 300 L 196 297 L 195 297 L 195 295 L 194 295 L 194 292 L 193 292 L 193 289 L 192 289 L 192 286 L 191 286 L 191 282 L 190 282 L 190 273 L 189 273 L 189 257 L 190 257 L 190 248 L 191 248 L 191 243 L 192 243 L 192 240 L 193 240 L 193 236 L 194 236 L 194 233 L 195 233 L 195 230 L 196 230 L 196 227 L 197 227 L 197 225 L 198 225 L 198 222 L 199 222 L 199 220 L 200 220 L 200 218 L 201 218 L 201 216 L 202 216 L 202 214 L 203 214 L 203 212 L 204 212 L 204 210 L 205 210 L 205 208 L 206 208 L 206 207 L 207 207 L 207 205 L 208 205 L 208 203 L 209 203 L 209 202 L 210 202 L 210 200 L 211 200 L 211 199 L 212 199 L 212 197 L 213 197 L 213 195 L 214 195 L 214 194 L 215 194 L 215 192 L 216 192 L 216 191 L 217 191 L 217 190 L 218 190 L 218 188 L 219 188 L 219 187 L 220 187 L 220 186 L 221 186 L 221 184 L 222 184 L 222 183 L 223 183 L 223 181 L 224 181 L 224 180 L 225 180 L 225 179 L 226 179 L 226 178 L 227 178 L 227 176 L 228 176 L 228 175 L 229 175 L 229 173 L 230 173 L 230 172 L 231 172 L 231 171 L 232 171 L 232 170 L 233 170 L 233 168 L 234 168 L 234 167 L 235 167 L 235 165 L 236 165 L 236 164 L 237 164 L 237 163 L 238 163 L 238 162 L 239 162 L 239 160 L 240 160 L 240 159 L 241 159 L 241 157 L 242 157 L 242 156 L 243 156 L 243 155 L 244 155 L 244 153 L 245 153 L 245 151 L 246 151 L 246 150 L 247 150 L 247 148 L 248 148 L 248 147 L 249 147 L 249 145 L 250 145 L 250 144 L 251 144 L 251 142 L 252 142 L 252 140 L 253 140 L 253 139 L 254 139 L 254 137 L 255 137 L 255 135 L 256 135 L 256 133 L 257 133 L 257 131 L 258 131 L 258 129 L 259 129 L 259 127 L 260 127 L 260 124 L 261 124 L 261 122 L 262 122 L 262 119 L 263 119 L 263 116 L 264 116 L 264 113 L 265 113 L 265 110 L 266 110 L 266 106 L 267 106 L 267 102 L 268 102 L 268 98 L 269 98 L 269 93 L 270 93 L 270 85 L 271 85 L 271 75 L 272 75 L 272 44 L 271 44 L 271 34 L 270 34 L 270 23 L 269 23 Z M 369 237 L 370 237 L 370 238 L 371 238 L 371 240 L 372 240 L 372 242 L 373 242 L 373 245 L 374 245 L 374 248 L 375 248 L 375 250 L 376 250 L 376 254 L 377 254 L 377 258 L 378 258 L 378 262 L 379 262 L 379 268 L 380 268 L 380 288 L 381 288 L 381 289 L 380 289 L 380 302 L 379 302 L 379 309 L 378 309 L 378 314 L 377 314 L 377 318 L 376 318 L 376 321 L 375 321 L 375 324 L 374 324 L 374 327 L 373 327 L 373 330 L 372 330 L 372 332 L 371 332 L 371 334 L 370 334 L 370 336 L 369 336 L 369 339 L 368 339 L 368 341 L 367 341 L 367 342 L 366 342 L 366 344 L 365 344 L 365 346 L 364 346 L 364 347 L 363 347 L 363 349 L 362 349 L 362 350 L 361 350 L 361 351 L 360 351 L 360 353 L 359 353 L 359 354 L 358 354 L 358 356 L 357 356 L 357 357 L 356 357 L 356 358 L 355 358 L 355 359 L 354 359 L 354 360 L 353 360 L 353 362 L 352 362 L 352 363 L 351 363 L 351 364 L 350 364 L 350 365 L 349 365 L 349 366 L 348 366 L 348 367 L 347 367 L 347 368 L 346 368 L 346 369 L 345 369 L 345 370 L 344 370 L 344 371 L 343 371 L 343 372 L 341 372 L 341 374 L 339 374 L 339 375 L 338 375 L 338 376 L 337 376 L 337 377 L 336 377 L 336 378 L 335 378 L 335 379 L 333 379 L 333 380 L 332 380 L 332 381 L 331 381 L 331 382 L 330 382 L 330 383 L 328 383 L 328 384 L 327 384 L 327 385 L 326 385 L 326 386 L 324 386 L 324 387 L 323 387 L 323 388 L 321 388 L 321 389 L 320 389 L 320 390 L 319 390 L 319 391 L 318 391 L 318 392 L 316 392 L 316 393 L 315 393 L 315 394 L 314 394 L 314 395 L 312 395 L 312 396 L 311 396 L 311 397 L 310 397 L 310 398 L 309 398 L 309 399 L 307 399 L 307 400 L 306 400 L 306 401 L 305 401 L 305 402 L 304 402 L 304 403 L 303 403 L 303 404 L 302 404 L 302 405 L 301 405 L 301 406 L 299 406 L 299 407 L 298 407 L 298 408 L 297 408 L 297 409 L 296 409 L 296 410 L 295 410 L 295 411 L 294 411 L 294 412 L 293 412 L 293 413 L 292 413 L 292 414 L 291 414 L 291 416 L 290 416 L 290 417 L 289 417 L 289 418 L 288 418 L 288 419 L 287 419 L 287 420 L 286 420 L 286 421 L 285 421 L 285 423 L 284 423 L 284 424 L 283 424 L 283 426 L 282 426 L 282 427 L 281 427 L 281 429 L 280 429 L 280 430 L 279 430 L 279 432 L 278 432 L 278 434 L 277 434 L 277 436 L 276 436 L 276 438 L 275 438 L 275 440 L 274 440 L 274 443 L 273 443 L 273 445 L 272 445 L 272 448 L 271 448 L 271 453 L 270 453 L 270 458 L 269 458 L 269 468 L 268 468 L 268 473 L 269 473 L 269 485 L 270 485 L 270 491 L 271 491 L 271 497 L 272 497 L 272 502 L 273 502 L 273 506 L 274 506 L 274 510 L 275 510 L 275 513 L 276 513 L 276 515 L 277 515 L 277 519 L 278 519 L 278 522 L 279 522 L 279 524 L 280 524 L 280 528 L 281 528 L 281 531 L 280 531 L 280 530 L 279 530 L 279 529 L 278 529 L 278 528 L 277 528 L 277 527 L 276 527 L 276 526 L 275 526 L 275 525 L 274 525 L 274 524 L 273 524 L 273 523 L 272 523 L 272 522 L 271 522 L 271 521 L 270 521 L 270 520 L 269 520 L 269 519 L 268 519 L 268 518 L 267 518 L 267 516 L 266 516 L 266 515 L 265 515 L 265 514 L 264 514 L 264 512 L 263 512 L 263 511 L 262 511 L 262 509 L 261 509 L 261 507 L 260 507 L 260 506 L 259 506 L 259 504 L 258 504 L 258 502 L 257 502 L 257 500 L 256 500 L 256 498 L 255 498 L 255 495 L 254 495 L 254 493 L 253 493 L 253 491 L 252 491 L 252 488 L 251 488 L 251 484 L 250 484 L 250 480 L 249 480 L 249 476 L 248 476 L 248 469 L 247 469 L 247 448 L 248 448 L 248 440 L 249 440 L 249 436 L 250 436 L 250 433 L 251 433 L 251 429 L 252 429 L 252 426 L 253 426 L 253 423 L 254 423 L 254 421 L 255 421 L 255 419 L 256 419 L 256 417 L 257 417 L 257 415 L 258 415 L 258 413 L 259 413 L 259 411 L 260 411 L 260 410 L 261 410 L 261 408 L 262 408 L 262 407 L 263 407 L 263 405 L 264 405 L 264 404 L 265 404 L 265 403 L 266 403 L 266 402 L 267 402 L 267 400 L 268 400 L 268 399 L 269 399 L 269 398 L 270 398 L 270 397 L 271 397 L 271 395 L 272 395 L 272 394 L 273 394 L 273 393 L 274 393 L 274 392 L 275 392 L 275 391 L 276 391 L 276 390 L 277 390 L 277 389 L 278 389 L 278 388 L 279 388 L 279 387 L 280 387 L 280 386 L 281 386 L 281 385 L 282 385 L 282 384 L 283 384 L 283 383 L 285 383 L 285 382 L 286 382 L 286 381 L 287 381 L 287 380 L 288 380 L 288 379 L 289 379 L 289 378 L 291 378 L 291 377 L 292 377 L 292 376 L 293 376 L 293 375 L 294 375 L 294 374 L 296 374 L 296 373 L 297 373 L 297 372 L 298 372 L 298 371 L 299 371 L 299 370 L 301 370 L 301 369 L 302 369 L 302 368 L 303 368 L 303 367 L 305 367 L 305 366 L 306 366 L 306 365 L 307 365 L 307 364 L 309 364 L 309 363 L 310 363 L 310 362 L 312 362 L 312 361 L 313 361 L 313 360 L 314 360 L 314 359 L 315 359 L 315 358 L 317 358 L 317 357 L 318 357 L 318 356 L 319 356 L 319 355 L 321 355 L 321 354 L 322 354 L 322 353 L 323 353 L 323 352 L 324 352 L 324 351 L 326 351 L 326 350 L 327 350 L 327 349 L 328 349 L 328 348 L 329 348 L 329 347 L 330 347 L 330 346 L 332 346 L 332 344 L 334 344 L 334 343 L 335 343 L 335 342 L 336 342 L 336 341 L 337 341 L 337 340 L 338 340 L 338 339 L 339 339 L 339 338 L 340 338 L 340 337 L 341 337 L 341 336 L 342 336 L 342 334 L 343 334 L 343 333 L 344 333 L 344 332 L 345 332 L 345 331 L 346 331 L 346 330 L 347 330 L 347 329 L 348 329 L 348 328 L 349 328 L 349 326 L 350 326 L 350 325 L 351 325 L 351 324 L 352 324 L 352 322 L 353 322 L 353 321 L 354 321 L 354 319 L 355 319 L 355 318 L 356 318 L 356 316 L 357 316 L 357 314 L 358 314 L 358 312 L 359 312 L 359 310 L 360 310 L 360 309 L 361 309 L 361 306 L 362 306 L 362 303 L 363 303 L 363 301 L 364 301 L 364 298 L 365 298 L 365 295 L 366 295 L 366 291 L 367 291 L 367 287 L 368 287 L 368 282 L 369 282 L 369 275 L 370 275 L 370 264 L 371 264 L 371 256 L 370 256 L 370 244 L 369 244 L 369 239 L 368 239 L 368 238 L 369 238 Z"/>
</svg>
